<?xml version="1.0" encoding="UTF-8" standalone="no"?>
<!-- Created with Inkscape (http://www.inkscape.org/) -->

<svg
   width="640"
   height="640"
   viewBox="0 0 169.33333 169.33334"
   version="1.1"
   id="svg5"
   sodipodi:docname="avartar_640.svg"
   inkscape:export-xdpi="96"
   inkscape:export-ydpi="96"
   inkscape:version="1.1.1 (c3084ef, 2021-09-22)"
   xmlns:inkscape="http://www.inkscape.org/namespaces/inkscape"
   xmlns:sodipodi="http://sodipodi.sourceforge.net/DTD/sodipodi-0.dtd"
   xmlns="http://www.w3.org/2000/svg"
   xmlns:svg="http://www.w3.org/2000/svg">
  <sodipodi:namedview
     id="namedview7"
     pagecolor="#ffffff"
     bordercolor="#666666"
     borderopacity="1.0"
     inkscape:pageshadow="2"
     inkscape:pageopacity="0.0"
     inkscape:pagecheckerboard="0"
     inkscape:document-units="mm"
     showgrid="false"
     units="px"
     width="640px"
     inkscape:showpageshadow="false"
     inkscape:zoom="0.46728241"
     inkscape:cx="341.33534"
     inkscape:cy="364.87571"
     inkscape:window-width="1680"
     inkscape:window-height="933"
     inkscape:window-x="0"
     inkscape:window-y="38"
     inkscape:window-maximized="0"
     inkscape:current-layer="layer1">
    <inkscape:grid
       type="xygrid"
       id="grid942" />
  </sodipodi:namedview>
  <defs
     id="defs2" />
  <g
     inkscape:label="Layer 1"
     inkscape:groupmode="layer"
     id="layer1">
    <rect
       style="fill:#ffffff;fill-opacity:1;stroke-width:0.470369"
       id="rect849"
       width="169.33333"
       height="169.33333"
       x="0"
       y="-5.5511151e-17" />
    <g
       aria-label="O "
       id="text1156"
       style="font-size:74.4361px;line-height:1.25;font-family:'Alibaba Sans';-inkscape-font-specification:'Alibaba Sans, Normal';fill:#2366d1;fill-opacity:1;stroke-width:0.264583"
       transform="matrix(0,1.7768362,-1.772273,0,169.33761,-0.37044587)">
      <path
         d="m 28.272252,74.349029 c 14.663911,0 22.256392,-5.73158 22.256392,-26.573687 0,-20.767671 -7.592481,-26.573686 -22.256392,-26.573686 -14.589475,0 -22.2563931,5.806015 -22.2563931,26.573686 0,20.842107 7.6669181,26.573687 22.2563931,26.573687 z m 0,-5.73158 c -12.579701,0 -15.2594,-6.10376 -15.2594,-20.842107 0,-14.29173 2.679699,-20.916543 15.2594,-20.916543 12.654136,0 15.333835,6.624813 15.333835,20.916543 0,14.738347 -2.679699,20.842107 -15.333835,20.842107 z"
         id="path2564"
         style="fill:#2366d1;fill-opacity:1" />
    </g>
    <g
       aria-label="O"
       id="text1690"
       style="font-weight:500;font-size:23.2833px;line-height:1.25;font-family:'Alibaba Sans';-inkscape-font-specification:'Alibaba Sans, Medium';fill:#2366d1;fill-opacity:1;stroke-width:0.264583"
       transform="matrix(0,1.7768362,-1.772273,0,170.27544,-0.37046357)">
      <path
         d="m 28.496341,56.561195 c 4.65666,0 7.19454,-1.746248 7.19454,-8.312139 0,-6.542607 -2.53788,-8.312138 -7.19454,-8.312138 -4.65666,0 -7.217823,1.769531 -7.217823,8.312138 0,6.565891 2.561163,8.312139 7.217823,8.312139 z m 0,-2.561164 c -3.306228,0 -4.028011,-1.559981 -4.028011,-5.750975 0,-4.121144 0.721783,-5.797542 4.028011,-5.797542 3.306229,0 4.004728,1.676398 4.004728,5.797542 0,4.190994 -0.698499,5.750975 -4.004728,5.750975 z"
         id="path2567"
         style="fill:#2366d1;fill-opacity:1" />
    </g>
    <g
       aria-label="C"
       id="text2024"
       style="font-size:74.4361px;line-height:1.25;font-family:'Alibaba Sans';-inkscape-font-specification:'Alibaba Sans, Normal';fill:#000000;fill-opacity:1;stroke-width:0.264583"
       transform="matrix(0,1.7768362,-1.772273,0,169.33761,-0.37044587)">
      <path
         d="m 77.196322,74.349021 c 5.210527,0 9.602257,-0.967669 12.505264,-2.233083 v -5.806015 c -3.945113,1.339849 -7.443609,2.009774 -12.281956,2.009774 -11.463158,0 -16.748121,-4.242857 -16.748121,-20.693235 0,-15.408271 5.657143,-20.544362 17.418046,-20.544362 4.540602,0 8.039099,0.669925 11.016543,1.786466 V 22.69037 c -3.05188,-0.967669 -6.401505,-1.488722 -11.165415,-1.488722 -14.887219,0 -24.266167,6.624813 -24.266167,26.573687 0,21.586468 9.304512,26.573686 23.521806,26.573686 z"
         id="path2570"
         style="fill:#000000;fill-opacity:1" />
    </g>
  </g>
</svg>
