<?xml version="1.0" encoding="UTF-8" standalone="no"?>
<!-- Created with Inkscape (http://www.inkscape.org/) -->

<svg
   width="1390"
   height="288"
   viewBox="0 0 367.77082 76.199997"
   version="1.1"
   id="svg5"
   inkscape:version="1.1 (c4e8f9e, 2021-05-24)"
   sodipodi:docname="logo.svg"
   xmlns:inkscape="http://www.inkscape.org/namespaces/inkscape"
   xmlns:sodipodi="http://sodipodi.sourceforge.net/DTD/sodipodi-0.dtd"
   xmlns="http://www.w3.org/2000/svg"
   xmlns:svg="http://www.w3.org/2000/svg">
  <sodipodi:namedview
     id="namedview7"
     pagecolor="#ffffff"
     bordercolor="#999999"
     borderopacity="1"
     inkscape:pageshadow="0"
     inkscape:pageopacity="0"
     inkscape:pagecheckerboard="0"
     inkscape:document-units="mm"
     showgrid="false"
     width="1390mm"
     units="px"
     inkscape:zoom="0.29921959"
     inkscape:cx="614.933"
     inkscape:cy="279.05927"
     inkscape:window-width="1680"
     inkscape:window-height="933"
     inkscape:window-x="0"
     inkscape:window-y="25"
     inkscape:window-maximized="0"
     inkscape:current-layer="layer1" />
  <defs
     id="defs2">
    <rect
       x="773.38629"
       y="27.136362"
       width="488.4545"
       height="181.81361"
       id="rect4727" />
    <rect
       x="10.854545"
       y="16.281816"
       width="1373.0999"
       height="238.79999"
       id="rect825" />
  </defs>
  <g
     inkscape:label="图层 1"
     inkscape:groupmode="layer"
     id="layer1">
    <text
       xml:space="preserve"
       transform="scale(0.26458333)"
       id="text823"
       style="font-style:normal;font-weight:normal;font-size:40px;line-height:1.25;font-family:sans-serif;white-space:pre;shape-inside:url(#rect825);fill:#000000;fill-opacity:1;stroke:none" />
    <g
       aria-label="Oxygen"
       transform="scale(0.86148242,1.1607898)"
       id="text2575"
       style="font-weight:500;font-size:65.2639px;line-height:1.25;font-family:'Alibaba Sans';-inkscape-font-specification:'Alibaba Sans, Medium';fill:#2366d1;stroke-width:1.56052">
      <path
         d="m 22.409643,52.003904 c 13.05278,0 20.166545,-4.894793 20.166545,-23.299213 0,-18.339156 -7.113765,-23.2992122 -20.166545,-23.2992122 -13.0527804,0 -20.2318095,4.9600562 -20.2318095,23.2992122 0,18.40442 7.1790291,23.299213 20.2318095,23.299213 z m 0,-7.179029 c -9.267474,0 -11.290655,-4.372681 -11.290655,-16.120184 0,-11.55171 2.023181,-16.250711 11.290655,-16.250711 9.267474,0 11.225391,4.699001 11.225391,16.250711 0,11.747503 -1.957917,16.120184 -11.225391,16.120184 z"
         id="path1257" />
      <path
         d="m 47.411836,51.351265 h 9.52853 l 8.157987,-12.987516 h 0.391584 l 7.962196,12.987516 h 9.593793 L 70.972104,33.273164 82.393287,16.108759 H 73.060549 L 65.555201,28.443636 H 65.163617 L 57.658269,16.108759 h -9.463266 l 11.421183,17.229669 z"
         id="path1259" />
      <path
         d="m 88.424083,64.404045 c 11.616977,0 15.271757,-4.307417 19.448647,-15.598072 l 12.07382,-32.697214 h -8.61484 l -8.61483,26.497143 h -0.39159 L 93.123084,16.108759 h -9.006418 l 13.901211,35.046714 c -1.305278,4.17689 -3.589515,6.200071 -9.593794,6.200071 z"
         id="path1261" />
      <path
         d="m 149.02161,16.108759 v 5.155848 c -1.37054,-3.524251 -4.24216,-5.808487 -10.89907,-5.808487 -11.55171,0 -14.42333,8.223251 -14.42333,17.947572 0,10.768544 2.87162,17.947573 14.42333,17.947573 6.46112,0 9.46326,-2.088445 10.89907,-5.547432 v 2.480029 c 0,7.113765 -3.39372,9.659057 -11.09486,9.659057 -3.00214,0 -6.39587,-0.32632 -9.07169,-0.978959 v 6.591654 c 2.61056,0.456848 6.39587,0.848431 9.52853,0.848431 13.70542,0 18.73074,-6.004279 18.73074,-15.7286 V 16.108759 Z m -8.81063,29.107699 c -7.0485,0 -8.02746,-5.286376 -8.02746,-11.812766 0,-6.069543 0.78317,-11.682238 8.02746,-11.682238 7.57061,0 9.13695,4.503209 9.13695,11.682238 0,7.440085 -1.56634,11.812766 -9.13695,11.812766 z"
         id="path1263" />
      <path
         d="m 197.1619,30.662608 c 0,-8.288515 -2.54529,-15.206488 -14.74964,-15.206488 -10.70328,0 -16.90335,4.046361 -16.90335,18.273892 0,14.22753 6.20007,18.273892 16.90335,18.273892 5.74322,0 10.83381,-1.17475 12.92225,-2.3495 v -6.656918 c -2.41476,1.240014 -7.24429,2.414764 -11.48645,2.414764 -7.0485,0 -9.92011,-2.741084 -10.1159,-8.614835 l 23.10342,-1.50107 c 0.19579,-1.17475 0.32632,-2.936875 0.32632,-4.633737 z m -23.42974,0.32632 c 0.26105,-6.134807 2.08844,-9.267474 8.6801,-9.267474 6.26533,0 7.17903,3.720042 7.17903,8.092724 z"
         id="path1265" />
      <path
         d="m 224.76751,15.45612 c -4.82953,0 -9.07168,1.435805 -11.09486,5.090584 v -4.437945 h -8.15799 v 35.242506 h 8.15799 V 27.856261 c 1.4358,-4.437946 4.43794,-5.612696 8.61483,-5.612696 4.96006,0 6.06954,2.284237 6.06954,7.244293 v 21.863407 h 8.15799 V 27.203622 c 0,-7.440085 -2.80635,-11.747502 -11.7475,-11.747502 z"
         id="path1267" />
    </g>
    <g
       aria-label="Coder"
       transform="scale(0.86148242,1.1607898)"
       id="text2575-6"
       style="font-weight:500;font-size:65.2639px;line-height:1.25;font-family:'Alibaba Sans';-inkscape-font-specification:'Alibaba Sans, Medium';stroke-width:1.56052">
      <path
         d="m 267.09372,51.871259 c 4.43794,0 8.35378,-0.84843 11.0296,-1.892653 v -7.374821 c -3.45899,1.240015 -6.72218,1.762126 -10.70328,1.762126 -8.6801,0 -12.6612,-3.197931 -12.6612,-15.859128 0,-11.943294 4.11163,-15.859128 12.98752,-15.859128 3.85057,0 7.0485,0.587375 9.85485,1.566334 V 6.70864 c -2.74109,-0.9136946 -6.06955,-1.4358058 -10.37696,-1.4358058 -13.18331,0 -21.60236,5.8084868 -21.60236,23.2992128 0,18.926531 8.48431,23.299212 21.47183,23.299212 z"
         id="path1288" />
      <path
         d="m 300.93713,51.871259 c 10.76854,0 16.96861,-4.046362 16.96861,-18.273892 0,-14.22753 -6.20007,-18.273892 -16.96861,-18.273892 -10.70328,0 -16.90335,4.046362 -16.90335,18.273892 0,14.22753 6.20007,18.273892 16.90335,18.273892 z m 0,-6.330598 c -6.3306,0 -8.48431,-2.806348 -8.48431,-11.943294 0,-9.136946 2.02318,-12.008558 8.48431,-12.008558 6.39586,0 8.54957,2.871612 8.54957,12.008558 0,9.136946 -1.95792,11.943294 -8.54957,11.943294 z"
         id="path1290" />
      <path
         d="M 349.63318,1.6180557 V 21.001434 c -1.43581,-3.458986 -4.30742,-5.677959 -10.89907,-5.677959 -11.55172,0 -14.2928,8.353779 -14.2928,18.273892 0,11.029599 2.74108,18.273892 14.2928,18.273892 6.33059,0 9.59379,-2.414764 10.96433,-5.808487 l 0.78317,5.155848 h 7.24429 V 1.6180557 Z m -8.6801,43.9226053 c -7.0485,0 -8.02746,-5.155848 -8.02746,-11.943294 0,-6.330598 0.78316,-12.008558 8.02746,-12.008558 7.11376,0 9.00642,4.829529 9.00642,12.008558 0,7.570613 -1.82739,11.943294 -9.00642,11.943294 z"
         id="path1292" />
      <path
         d="m 397.77652,30.529964 c 0,-8.288516 -2.54529,-15.206489 -14.74964,-15.206489 -10.70328,0 -16.90335,4.046362 -16.90335,18.273892 0,14.22753 6.20007,18.273892 16.90335,18.273892 5.74322,0 10.83381,-1.17475 12.92225,-2.3495 v -6.656918 c -2.41476,1.240014 -7.24429,2.414764 -11.48644,2.414764 -7.0485,0 -9.92012,-2.741084 -10.11591,-8.614835 l 23.10342,-1.501069 c 0.1958,-1.17475 0.32632,-2.936876 0.32632,-4.633737 z m -23.42974,0.326319 c 0.26106,-6.134806 2.08845,-9.267474 8.6801,-9.267474 6.26534,0 7.17903,3.720043 7.17903,8.092724 z"
         id="path1294" />
      <path
         d="m 424.86002,15.323475 c -4.17689,0 -8.41904,1.17475 -10.57275,6.983237 v -6.330598 h -8.15799 V 51.21862 h 8.15799 V 30.268908 c 1.30528,-6.069543 5.67796,-7.635876 10.18117,-7.635876 h 0.84843 l 0.26106,-7.309557 z"
         id="path1296" />
    </g>
  </g>
</svg>
